<?xml version="1.0" encoding="UTF-8"?>
<svg width="71px" height="71px" viewBox="0 0 71 71" version="1.1" xmlns="http://www.w3.org/2000/svg" xmlns:xlink="http://www.w3.org/1999/xlink">
    <!-- Generator: Sketch 51.3 (57544) - http://www.bohemiancoding.com/sketch -->
    <title>taxi-arrive-at-destination</title>
    <desc>Created with Sketch.</desc>
    <defs></defs>
    <g id="Page-1" stroke="none" stroke-width="1" fill="none" fill-rule="evenodd">
        <g id="Rideways-LP-Desktop-v3" transform="translate(-196.000000, -1252.000000)" fill-rule="nonzero">
            <g id="Stacked-Group-Copy" transform="translate(-8.000000, 772.000000)">
                <g id="Group-10" transform="translate(203.000000, 0.000000)">
                    <g id="taxi-arrive-at-destination" transform="translate(1.000000, 480.000000)">
                        <g id="Group-26" fill="#CCE1FF">
                            <circle id="Oval-3" cx="35.5" cy="35.5" r="35.5"></circle>
                        </g>
                        <g id="hotel" transform="translate(21.000000, 16.000000)" fill="#003580">
                            <path d="M0,0 L0,39 L2.9,39 L2.9,27.8571429 L11.6,27.8571429 L11.6,39 L17.4,39 L17.4,27.8571429 L26.1,27.8571429 L26.1,39 L29,39 L29,0 L0,0 Z M9,25.35 L3,25.35 L3,19.5 L9,19.5 L9,25.35 Z M9,16.575 L3,16.575 L3,10.725 L9,10.725 L9,16.575 Z M9,8.775 L3,8.775 L3,2.925 L9,2.925 L9,8.775 Z M18,25.35 L12,25.35 L12,19.5 L18,19.5 L18,25.35 Z M18,16.575 L12,16.575 L12,10.725 L18,10.725 L18,16.575 Z M18,8.775 L12,8.775 L12,2.925 L18,2.925 L18,8.775 Z M26,25.35 L20,25.35 L20,19.5 L26,19.5 L26,25.35 Z M26,16.575 L20,16.575 L20,10.725 L26,10.725 L26,16.575 Z M26,8.775 L20,8.775 L20,2.925 L26,2.925 L26,8.775 Z" id="Shape"></path>
                        </g>
                    </g>
                </g>
            </g>
        </g>
    </g>
</svg>