<?xml version="1.0" encoding="UTF-8"?>
<svg width="71px" height="71px" viewBox="0 0 71 71" version="1.1" xmlns="http://www.w3.org/2000/svg" xmlns:xlink="http://www.w3.org/1999/xlink">
    <!-- Generator: Sketch 51.3 (57544) - http://www.bohemiancoding.com/sketch -->
    <title>taxi-book-taxi</title>
    <desc>Created with Sketch.</desc>
    <defs></defs>
    <g id="Page-1" stroke="none" stroke-width="1" fill="none" fill-rule="evenodd">
        <g id="Rideways-LP-Desktop-v3" transform="translate(-195.000000, -979.000000)" fill-rule="nonzero">
            <g id="Stacked-Group-Copy" transform="translate(-8.000000, 772.000000)">
                <g id="Group-10" transform="translate(203.000000, 0.000000)">
                    <g id="taxi-book-taxi" transform="translate(0.000000, 207.000000)">
                        <circle id="Oval-3" fill="#CCE1FF" cx="35.5" cy="35.5" r="35.5"></circle>
                        <g id="car_front" transform="translate(13.000000, 17.000000)">
                            <path d="M40.6607143,13.0229167 L36.9642857,3.95833333 C35.9837357,1.57024456 33.6326661,0.00521820524 31.0178571,0 L13.9821429,0 C11.3673339,0.00521820524 9.01626427,1.57024456 8.03571429,3.95833333 L4.37946429,13.0625 C1.78573152,13.9216667 0.0283406989,16.3042659 0,19 L0,28.5 C3.56857401e-16,30.2489017 1.43908473,31.6666667 3.21428571,31.6666667 L3.21428571,34.8333333 C3.21428571,36.582235 4.65337045,38 6.42857143,38 C8.20377241,38 9.64285714,36.582235 9.64285714,34.8333333 L9.64285714,31.6666667 L35.3571429,31.6666667 L35.3571429,34.8333333 C35.3571429,36.582235 36.7962276,38 38.5714286,38 C40.3466296,38 41.7857143,36.582235 41.7857143,34.8333333 L41.7857143,31.6666667 C43.5609153,31.6666667 45,30.2489017 45,28.5 L45,19 C44.9946158,16.3000864 43.2524634,13.9003851 40.6607143,13.0229167 Z" id="Path" fill="#003580"></path>
                            <path d="M11.0441989,5.08333333 C11.5329691,3.82644451 12.7048957,3.00274642 14.0082873,3 L30.9917127,3 C32.2951043,3.00274642 33.4670309,3.82644451 33.9558011,5.08333333 L37,13 L8,13 L11.0441989,5.08333333 Z" id="Path" fill="#FFFFFF"></path>
                            <path d="M7,24 C4.790861,24 3,22.209139 3,20 C3,17.790861 4.790861,16 7,16 C9.209139,16 11,17.790861 11,20 C11,22.209139 9.209139,24 7,24 Z" id="Path" fill="#FEBB02"></path>
                            <path d="M34,20 C34,17.790861 35.790861,16 38,16 C40.209139,16 42,17.790861 42,20 C42,22.209139 40.209139,24 38,24 C35.790861,24 34,22.209139 34,20 Z" id="Path" fill="#FEBB02"></path>
                        </g>
                    </g>
                </g>
            </g>
        </g>
    </g>
</svg>